<svg width="400" height="400" viewBox="0 0 400 400" xmlns="http://www.w3.org/2000/svg">
  <defs>
    <radialGradient id="nanhongGradient" cx="40%" cy="30%" r="70%">
      <stop offset="0%" style="stop-color:#ffebe8;stop-opacity:1" />
      <stop offset="20%" style="stop-color:#ffd8d0;stop-opacity:1" />
      <stop offset="50%" style="stop-color:#ffc0b0;stop-opacity:1" />
      <stop offset="80%" style="stop-color:#ff9080;stop-opacity:1" />
      <stop offset="100%" style="stop-color:#e86050;stop-opacity:1" />
    </radialGradient>
    <linearGradient id="baseGradient" x1="0%" y1="0%" x2="100%" y2="100%">
      <stop offset="0%" style="stop-color:#f8f0e8;stop-opacity:1" />
      <stop offset="100%" style="stop-color:#e8d8c8;stop-opacity:1" />
    </linearGradient>
    <filter id="nanhongGlow" x="-30%" y="-30%" width="160%" height="160%">
      <feGaussianBlur stdDeviation="2" result="coloredBlur"/>
      <feMerge> 
        <feMergeNode in="coloredBlur"/>
        <feMergeNode in="SourceGraphic"/>
      </feMerge>
    </filter>
  </defs>
  
  <!-- Background -->
  <rect width="400" height="400" fill="#fafafa"/>
  
  <!-- Shadow -->
  <ellipse cx="200" cy="370" rx="80" ry="20" fill="#d0c0b0" opacity="0.3"/>
  
  <!-- Base/Stand -->
  <ellipse cx="200" cy="340" rx="60" ry="15" fill="url(#baseGradient)" stroke="#d0c0b0" stroke-width="1"/>
  <rect x="140" y="335" width="120" height="10" fill="url(#baseGradient)" stroke="#d0c0b0" stroke-width="1"/>
  
  <!-- Main ornament body - traditional Chinese vase shape -->
  <path d="M200 100 C220 100 240 110 250 130 C255 150 250 170 245 190 C250 210 255 230 250 250 C245 270 240 290 220 310 C210 320 200 325 200 325 C200 325 190 320 180 310 C160 290 155 270 150 250 C145 230 150 210 155 190 C150 170 145 150 150 130 C160 110 180 100 200 100 Z" 
        fill="url(#nanhongGradient)" 
        stroke="#d06050" 
        stroke-width="2" 
        filter="url(#nanhongGlow)"/>
  
  <!-- Neck decoration -->
  <ellipse cx="200" cy="130" rx="25" ry="8" fill="#ff8070" stroke="#d06050" stroke-width="1"/>
  <ellipse cx="200" cy="125" rx="20" ry="5" fill="#ffb0a0" opacity="0.7"/>
  
  <!-- Body decorative bands -->
  <ellipse cx="200" cy="180" rx="35" ry="6" fill="#ff8070" stroke="#d06050" stroke-width="0.5" opacity="0.8"/>
  <ellipse cx="200" cy="220" rx="38" ry="6" fill="#ff8070" stroke="#d06050" stroke-width="0.5" opacity="0.8"/>
  <ellipse cx="200" cy="260" rx="35" ry="6" fill="#ff8070" stroke="#d06050" stroke-width="0.5" opacity="0.8"/>
  
  <!-- Traditional Chinese patterns -->
  <path d="M170 160 Q200 155 230 160" stroke="#e07060" stroke-width="1.5" fill="none" opacity="0.7"/>
  <path d="M175 200 Q200 195 225 200" stroke="#e07060" stroke-width="1.5" fill="none" opacity="0.7"/>
  <path d="M170 240 Q200 235 230 240" stroke="#e07060" stroke-width="1.5" fill="none" opacity="0.7"/>
  <path d="M175 280 Q200 275 225 280" stroke="#e07060" stroke-width="1.5" fill="none" opacity="0.7"/>
  
  <!-- Decorative cloud motifs -->
  <circle cx="180" cy="170" r="6" fill="#ffb0a0" stroke="#e07060" stroke-width="0.5" opacity="0.6"/>
  <circle cx="220" cy="170" r="6" fill="#ffb0a0" stroke="#e07060" stroke-width="0.5" opacity="0.6"/>
  <circle cx="185" cy="210" r="5" fill="#ffb0a0" stroke="#e07060" stroke-width="0.5" opacity="0.6"/>
  <circle cx="215" cy="210" r="5" fill="#ffb0a0" stroke="#e07060" stroke-width="0.5" opacity="0.6"/>
  <circle cx="180" cy="250" r="6" fill="#ffb0a0" stroke="#e07060" stroke-width="0.5" opacity="0.6"/>
  <circle cx="220" cy="250" r="6" fill="#ffb0a0" stroke="#e07060" stroke-width="0.5" opacity="0.6"/>
  
  <!-- Natural agate banding -->
  <path d="M160 140 Q200 145 240 140" stroke="#ff9080" stroke-width="0.8" fill="none" opacity="0.5"/>
  <path d="M165 190 Q200 195 235 190" stroke="#ff9080" stroke-width="0.8" fill="none" opacity="0.5"/>
  <path d="M160 230 Q200 235 240 230" stroke="#ff9080" stroke-width="0.8" fill="none" opacity="0.5"/>
  <path d="M165 270 Q200 275 235 270" stroke="#ff9080" stroke-width="0.8" fill="none" opacity="0.5"/>
  
  <!-- Highlight areas showing translucency -->
  <ellipse cx="185" cy="150" rx="15" ry="20" fill="#ffe8e0" opacity="0.4"/>
  <ellipse cx="215" cy="190" rx="12" ry="18" fill="#ffe8e0" opacity="0.3"/>
  <ellipse cx="190" cy="230" rx="18" ry="15" fill="#ffe8e0" opacity="0.35"/>
  
  <!-- Color variations typical of nanhong -->
  <circle cx="175" cy="180" r="8" fill="#ff7060" opacity="0.6"/>
  <circle cx="225" cy="220" r="6" fill="#ff6050" opacity="0.7"/>
  <circle cx="200" cy="260" r="7" fill="#ff8070" opacity="0.5"/>
</svg>