<svg width="400" height="400" viewBox="0 0 400 400" xmlns="http://www.w3.org/2000/svg">
  <defs>
    <radialGradient id="seedJadeGradient" cx="40%" cy="30%" r="60%">
      <stop offset="0%" style="stop-color:#fefef8;stop-opacity:1" />
      <stop offset="20%" style="stop-color:#f8f8f0;stop-opacity:1" />
      <stop offset="50%" style="stop-color:#f0f0e8;stop-opacity:1" />
      <stop offset="80%" style="stop-color:#e8e8d8;stop-opacity:1" />
      <stop offset="100%" style="stop-color:#d8d8c8;stop-opacity:1" />
    </radialGradient>
    <radialGradient id="skinGradient" cx="30%" cy="20%" r="70%">
      <stop offset="0%" style="stop-color:#f5f5ed;stop-opacity:1" />
      <stop offset="50%" style="stop-color:#ede5d8;stop-opacity:1" />
      <stop offset="100%" style="stop-color:#d8d0c0;stop-opacity:1" />
    </radialGradient>
    <filter id="naturalTexture" x="-20%" y="-20%" width="140%" height="140%">
      <feTurbulence baseFrequency="0.02" numOctaves="3" result="noise"/>
      <feColorMatrix in="noise" type="saturate" values="0"/>
      <feComponentTransfer>
        <feFuncA type="discrete" tableValues="0 .1 .2 .1 0"/>
      </feComponentTransfer>
      <feComposite operator="over" in2="SourceGraphic"/>
    </filter>
  </defs>
  
  <!-- Background -->
  <rect width="400" height="400" fill="#fafafa"/>
  
  <!-- Shadow -->
  <ellipse cx="200" cy="360" rx="90" ry="20" fill="#d0d0d0" opacity="0.2"/>
  
  <!-- Main jade stone body - irregular natural shape -->
  <path d="M200 100 C250 95 290 130 295 180 C300 220 285 260 270 290 C250 320 220 340 200 345 C180 340 150 320 130 290 C115 260 100 220 105 180 C110 130 150 95 200 100 Z" 
        fill="url(#seedJadeGradient)" 
        stroke="#d0d0c0" 
        stroke-width="1.5" 
        filter="url(#naturalTexture)"/>
  
  <!-- Natural skin/cortex areas -->
  <path d="M160 120 C180 115 200 118 220 125 C235 135 240 150 235 165 C225 175 205 180 185 175 C165 170 155 155 160 140 C158 130 159 125 160 120 Z" 
        fill="url(#skinGradient)" 
        stroke="#c8c0b0" 
        stroke-width="0.8" 
        opacity="0.8"/>
  
  <path d="M240 200 C255 205 265 220 260 235 C255 250 240 260 225 255 C210 250 205 235 210 220 C215 205 230 195 240 200 Z" 
        fill="url(#skinGradient)" 
        stroke="#c8c0b0" 
        stroke-width="0.8" 
        opacity="0.6"/>
  
  <!-- Natural texture lines and patterns -->
  <path d="M140 160 Q180 165 220 160 Q250 170 270 200" 
        stroke="#e0e0d0" 
        stroke-width="0.5" 
        fill="none" 
        opacity="0.7"/>
  
  <path d="M130 200 Q160 210 190 205 Q220 200 250 210" 
        stroke="#e0e0d0" 
        stroke-width="0.4" 
        fill="none" 
        opacity="0.6"/>
  
  <path d="M150 240 Q180 245 210 240 Q240 235 260 245" 
        stroke="#e0e0d0" 
        stroke-width="0.3" 
        fill="none" 
        opacity="0.5"/>
  
  <!-- Natural inclusions and color variations -->
  <circle cx="170" cy="180" r="4" fill="#f0f0e0" opacity="0.6"/>
  <circle cx="230" cy="220" r="3" fill="#e8e8d0" opacity="0.5"/>
  <circle cx="190" cy="250" r="2" fill="#f5f5e8" opacity="0.7"/>
  
  <!-- Subtle natural cracks -->
  <path d="M180 140 L185 150 L190 160" 
        stroke="#d8d8c8" 
        stroke-width="0.3" 
        fill="none" 
        opacity="0.4"/>
  
  <path d="M220 180 L225 190 L230 200" 
        stroke="#d8d8c8" 
        stroke-width="0.2" 
        fill="none" 
        opacity="0.3"/>
  
  <!-- Highlight areas showing jade quality -->
  <ellipse cx="180" cy="160" rx="15" ry="20" fill="#fefef8" opacity="0.3"/>
  <ellipse cx="220" cy="200" rx="12" ry="18" fill="#fefef8" opacity="0.2"/>
  
  <!-- Natural edge variations -->
  <path d="M150 280 Q160 285 170 280 Q180 275 190 280" 
        stroke="#d0d0c0" 
        stroke-width="0.8" 
        fill="none" 
        opacity="0.6"/>
</svg>