<svg width="400" height="400" viewBox="0 0 400 400" xmlns="http://www.w3.org/2000/svg">
  <defs>
    <linearGradient id="jadeiteGradient" x1="0%" y1="0%" x2="100%" y2="100%">
      <stop offset="0%" style="stop-color:#e8f5e8;stop-opacity:1" />
      <stop offset="25%" style="stop-color:#d0f0d0;stop-opacity:1" />
      <stop offset="50%" style="stop-color:#b8e8b8;stop-opacity:1" />
      <stop offset="75%" style="stop-color:#a0e0a0;stop-opacity:1" />
      <stop offset="100%" style="stop-color:#88d888;stop-opacity:1" />
    </linearGradient>
    <radialGradient id="innerGradient" cx="50%" cy="50%" r="50%">
      <stop offset="0%" style="stop-color:#f0f8f0;stop-opacity:1" />
      <stop offset="100%" style="stop-color:#c8e8c8;stop-opacity:1" />
    </radialGradient>
    <filter id="jadeiteGlow" x="-50%" y="-50%" width="200%" height="200%">
      <feGaussianBlur stdDeviation="3" result="coloredBlur"/>
      <feMerge> 
        <feMergeNode in="coloredBlur"/>
        <feMergeNode in="SourceGraphic"/>
      </feMerge>
    </filter>
  </defs>
  
  <!-- Background -->
  <rect width="400" height="400" fill="#fafafa"/>
  
  <!-- Shadow -->
  <ellipse cx="200" cy="350" rx="120" ry="25" fill="#c0c0c0" opacity="0.2"/>
  
  <!-- Outer ring of bracelet -->
  <circle cx="200" cy="200" r="120" 
          fill="none" 
          stroke="url(#jadeiteGradient)" 
          stroke-width="40" 
          filter="url(#jadeiteGlow)"/>
  
  <!-- Inner highlight ring -->
  <circle cx="200" cy="200" r="120" 
          fill="none" 
          stroke="url(#innerGradient)" 
          stroke-width="20" 
          opacity="0.6"/>
  
  <!-- Outer edge definition -->
  <circle cx="200" cy="200" r="140" 
          fill="none" 
          stroke="#70c070" 
          stroke-width="2" 
          opacity="0.8"/>
  
  <!-- Inner edge definition -->
  <circle cx="200" cy="200" r="100" 
          fill="none" 
          stroke="#70c070" 
          stroke-width="2" 
          opacity="0.8"/>
  
  <!-- Natural jade patterns and veins -->
  <path d="M120 150 Q160 140 200 150 Q240 160 280 150" 
        stroke="#60b060" 
        stroke-width="1.5" 
        fill="none" 
        opacity="0.7"/>
  
  <path d="M150 120 Q180 110 210 120 Q240 130 270 120" 
        stroke="#60b060" 
        stroke-width="1" 
        fill="none" 
        opacity="0.5"/>
  
  <path d="M280 250 Q240 240 200 250 Q160 260 120 250" 
        stroke="#60b060" 
        stroke-width="1.5" 
        fill="none" 
        opacity="0.7"/>
  
  <path d="M270 280 Q240 270 210 280 Q180 290 150 280" 
        stroke="#60b060" 
        stroke-width="1" 
        fill="none" 
        opacity="0.5"/>
  
  <!-- Color variations in jade -->
  <circle cx="160" cy="160" r="8" fill="#98e098" opacity="0.6"/>
  <circle cx="240" cy="180" r="6" fill="#a8f0a8" opacity="0.5"/>
  <circle cx="180" cy="240" r="7" fill="#90d890" opacity="0.7"/>
  <circle cx="220" cy="220" r="5" fill="#b0f8b0" opacity="0.4"/>
  
  <!-- Subtle texture lines -->
  <path d="M140 180 Q200 185 260 180" 
        stroke="#80d080" 
        stroke-width="0.5" 
        fill="none" 
        opacity="0.4"/>
  
  <path d="M160 220 Q200 215 240 220" 
        stroke="#80d080" 
        stroke-width="0.5" 
        fill="none" 
        opacity="0.4"/>
  
  <!-- Highlight spots showing jade translucency -->
  <ellipse cx="170" cy="170" rx="12" ry="8" fill="#f8fff8" opacity="0.3"/>
  <ellipse cx="230" cy="200" rx="10" ry="6" fill="#f8fff8" opacity="0.2"/>
  <ellipse cx="200" cy="230" rx="8" ry="10" fill="#f8fff8" opacity="0.25"/>
</svg>