<svg width="1920" height="600" viewBox="0 0 1920 600" xmlns="http://www.w3.org/2000/svg">
  <defs>
    <!-- 背景渐变 -->
    <linearGradient id="emeraldBg" x1="0%" y1="0%" x2="100%" y2="100%">
      <stop offset="0%" style="stop-color:#ecfdf5;stop-opacity:1" />
      <stop offset="50%" style="stop-color:#d1fae5;stop-opacity:1" />
      <stop offset="100%" style="stop-color:#a7f3d0;stop-opacity:1" />
    </linearGradient>
    
    <!-- 翡翠渐变 -->
    <radialGradient id="emeraldGradient" cx="50%" cy="30%" r="70%">
      <stop offset="0%" style="stop-color:#6ee7b7;stop-opacity:0.9" />
      <stop offset="30%" style="stop-color:#34d399;stop-opacity:0.8" />
      <stop offset="70%" style="stop-color:#10b981;stop-opacity:0.7" />
      <stop offset="100%" style="stop-color:#047857;stop-opacity:0.6" />
    </radialGradient>
    
    <!-- 深翡翠色 -->
    <radialGradient id="deepEmerald" cx="50%" cy="30%" r="60%">
      <stop offset="0%" style="stop-color:#34d399;stop-opacity:1" />
      <stop offset="50%" style="stop-color:#10b981;stop-opacity:0.9" />
      <stop offset="100%" style="stop-color:#047857;stop-opacity:0.8" />
    </radialGradient>
    
    <!-- 光泽效果 -->
    <radialGradient id="emeraldShine" cx="30%" cy="20%" r="40%">
      <stop offset="0%" style="stop-color:#ffffff;stop-opacity:0.7" />
      <stop offset="50%" style="stop-color:#6ee7b7;stop-opacity:0.3" />
      <stop offset="100%" style="stop-color:#ffffff;stop-opacity:0" />
    </radialGradient>
    
    <!-- 阴影滤镜 -->
    <filter id="emeraldShadow" x="-50%" y="-50%" width="200%" height="200%">
      <feDropShadow dx="3" dy="6" stdDeviation="10" flood-color="#047857" flood-opacity="0.3"/>
    </filter>
  </defs>
  
  <!-- 背景 -->
  <rect width="1920" height="600" fill="url(#emeraldBg)"/>
  
  <!-- 装饰性背景图案 -->
  <g opacity="0.15">
    <circle cx="1650" cy="80" r="100" fill="#10b981"/>
    <circle cx="1750" cy="180" r="70" fill="#047857"/>
    <circle cx="1600" cy="280" r="50" fill="#34d399"/>
    <circle cx="1700" cy="380" r="30" fill="#10b981"/>
  </g>
  
  <!-- 主要翡翠手镯 -->
  <g transform="translate(1300, 200)">
    <!-- 外圈 -->
    <circle cx="0" cy="0" r="140" fill="none" stroke="url(#emeraldGradient)" stroke-width="40" filter="url(#emeraldShadow)"/>
    
    <!-- 内部光泽 -->
    <circle cx="0" cy="0" r="140" fill="none" stroke="url(#emeraldShine)" stroke-width="20"/>
    
    <!-- 装饰纹理 -->
    <circle cx="0" cy="0" r="120" fill="none" stroke="#047857" stroke-width="2" opacity="0.6"/>
    <circle cx="0" cy="0" r="160" fill="none" stroke="#047857" stroke-width="1" opacity="0.4"/>
  </g>
  
  <!-- 翡翠吊坠 -->
  <g transform="translate(1150, 400)">
    <!-- 主体 -->
    <ellipse cx="0" cy="0" rx="50" ry="70" fill="url(#deepEmerald)" filter="url(#emeraldShadow)"/>
    
    <!-- 光泽 -->
    <ellipse cx="-10" cy="-15" rx="20" ry="25" fill="url(#emeraldShine)"/>
    
    <!-- 雕刻纹理 -->
    <path d="M-20,-30 Q0,-10 20,-30" stroke="#047857" stroke-width="1.5" fill="none" opacity="0.7"/>
    <path d="M-15,10 Q0,30 15,10" stroke="#047857" stroke-width="1.5" fill="none" opacity="0.7"/>
  </g>
  
  <!-- 小翡翠珠子 -->
  <g transform="translate(1450, 350)">
    <circle cx="0" cy="0" r="25" fill="url(#emeraldGradient)" opacity="0.8"/>
    <circle cx="-8" cy="-8" r="10" fill="url(#emeraldShine)"/>
  </g>
  
  <g transform="translate(1200, 120)">
    <circle cx="0" cy="0" r="20" fill="url(#emeraldGradient)" opacity="0.7"/>
    <circle cx="-6" cy="-6" r="8" fill="url(#emeraldShine)"/>
  </g>
  
  <g transform="translate(1500, 450)">
    <circle cx="0" cy="0" r="18" fill="url(#emeraldGradient)" opacity="0.6"/>
    <circle cx="-5" cy="-5" r="7" fill="url(#emeraldShine)"/>
  </g>
  
  <!-- 文字区域 -->
  <g transform="translate(100, 180)">
    <!-- 主标题 -->
    <text x="0" y="0" font-family="serif" font-size="72" font-weight="bold" fill="#047857">
      翡翠珠宝
    </text>
    
    <!-- 副标题 -->
    <text x="0" y="80" font-family="serif" font-size="36" fill="#065f46">
      缅甸精品 · 绿意盎然
    </text>
    
    <!-- 描述文字 -->
    <text x="0" y="140" font-family="sans-serif" font-size="24" fill="#047857">
      天然缅甸翡翠，色泽鲜艳，质地细腻
    </text>
    
    <!-- 装饰线条 -->
    <line x1="0" y1="160" x2="450" y2="160" stroke="#10b981" stroke-width="4"/>
    
    <!-- 特色标签 -->
    <g transform="translate(0, 200)">
      <rect x="0" y="0" width="180" height="50" rx="25" fill="#10b981" opacity="0.9"/>
      <text x="90" y="32" font-family="sans-serif" font-size="18" font-weight="bold" fill="white" text-anchor="middle">
        A货保证
      </text>
    </g>
    
    <g transform="translate(200, 200)">
      <rect x="0" y="0" width="180" height="50" rx="25" fill="#047857" opacity="0.9"/>
      <text x="90" y="32" font-family="sans-serif" font-size="18" font-weight="bold" fill="white" text-anchor="middle">
        专业鉴定
      </text>
    </g>
  </g>
  
  <!-- 装饰性元素 -->
  <g opacity="0.3">
    <!-- 传统花纹 -->
    <path d="M50,80 Q100,60 150,80 Q200,100 250,80 Q300,60 350,80" stroke="#10b981" stroke-width="3" fill="none"/>
    <path d="M50,520 Q100,500 150,520 Q200,540 250,520 Q300,500 350,520" stroke="#10b981" stroke-width="3" fill="none"/>
  </g>
  
  <!-- 右上角装饰 -->
  <g transform="translate(1800, 80)" opacity="0.2">
    <polygon points="0,0 30,20 0,40 -30,20" fill="#10b981"/>
    <polygon points="40,30 70,50 40,70 10,50" fill="#047857"/>
  </g>
  
  <!-- 左下角装饰 -->
  <g transform="translate(100, 500)" opacity="0.25">
    <rect x="0" y="0" width="40" height="40" rx="5" fill="#10b981" transform="rotate(45)"/>
    <rect x="60" y="20" width="30" height="30" rx="5" fill="#047857" transform="rotate(45)"/>
  </g>
</svg>